<svg xmlns="http://www.w3.org/2000/svg" viewBox="0 0 128 128" role="img" aria-labelledby="symfonyTitle">
  <title id="symfonyTitle">Symfony</title>
  <rect width="128" height="128" rx="24" fill="#F5F7FA"/>
  <circle cx="64" cy="64" r="42" fill="#111827"/>
  <path d="M42 71.5c3.6 8 10.9 13 19.8 13 10.2 0 17.1-5.3 17.1-12.8 0-6.2-3.6-9.5-12.9-12.2l-4.8-1.4c-5.2-1.6-7.2-3-7.2-5.9 0-3.1 2.9-5.5 7.4-5.5 4.7 0 8.1 2 10.8 6.1l8.2-5.2c-3.8-6.1-10-9.7-18.6-9.7-10.2 0-17.6 6.1-17.6 14.8 0 6.7 3.9 10.8 13.1 13.4l4.8 1.4c5 1.5 6.8 2.8 6.8 5.7 0 3.4-3 5.7-7.8 5.7-5.5 0-9.8-2.5-12.5-7.3Z" fill="#FFFFFF"/>
  <path d="M87 34 98 45" stroke="#111827" stroke-width="8" stroke-linecap="round" opacity=".18"/>
</svg>